<mxfile host="app.diagrams.net" modified="2023-08-14T18:53:37.536Z" agent="Mozilla/5.0 (Windows NT 10.0; Win64; x64) AppleWebKit/537.36 (KHTML, like Gecko) Chrome/115.0.0.0 Safari/537.36" etag="VrQAw4a79QZHm66X6QLy" version="21.6.8" type="device">
  <diagram name="Page-1" id="2cc2dc42-3aac-f2a9-1cec-7a8b7cbee084">
    <mxGraphModel dx="1955" dy="1158" grid="1" gridSize="10" guides="1" tooltips="1" connect="1" arrows="1" fold="1" page="1" pageScale="1" pageWidth="1100" pageHeight="850" background="none" math="0" shadow="0">
      <root>
        <mxCell id="0" />
        <mxCell id="1" parent="0" />
        <mxCell id="7026571954dc6520-1" value="" style="strokeWidth=1;shadow=0;dashed=0;align=center;html=1;shape=mxgraph.mockup.containers.browserWindow;rSize=0;strokeColor=#666666;mainText=,;recursiveResize=0;rounded=0;labelBackgroundColor=none;fontFamily=Verdana;fontSize=12" parent="1" vertex="1">
          <mxGeometry x="25" y="15" width="1050" height="820" as="geometry" />
        </mxCell>
        <mxCell id="7026571954dc6520-2" value="HOME PAGE" style="strokeWidth=1;shadow=0;dashed=0;align=center;html=1;shape=mxgraph.mockup.containers.anchor;fontSize=17;fontColor=#666666;align=left;" parent="7026571954dc6520-1" vertex="1">
          <mxGeometry x="60" y="12" width="110" height="26" as="geometry" />
        </mxCell>
        <mxCell id="7026571954dc6520-3" value="https://www.ihypesfmedia.com/home" style="strokeWidth=1;shadow=0;dashed=0;align=center;html=1;shape=mxgraph.mockup.containers.anchor;rSize=0;fontSize=17;fontColor=#666666;align=left;" parent="7026571954dc6520-1" vertex="1">
          <mxGeometry x="130" y="60" width="250" height="26" as="geometry" />
        </mxCell>
        <mxCell id="7026571954dc6520-15" value="" style="verticalLabelPosition=bottom;shadow=0;dashed=0;align=center;html=1;verticalAlign=top;strokeWidth=1;shape=mxgraph.mockup.markup.line;strokeColor=#999999;rounded=0;labelBackgroundColor=none;fillColor=#ffffff;fontFamily=Verdana;fontSize=12;fontColor=#000000;" parent="7026571954dc6520-1" vertex="1">
          <mxGeometry y="170" width="1050" height="20" as="geometry" />
        </mxCell>
        <mxCell id="7026571954dc6520-21" value="" style="verticalLabelPosition=bottom;shadow=0;dashed=0;align=center;html=1;verticalAlign=top;strokeWidth=1;shape=mxgraph.mockup.markup.line;strokeColor=#999999;rounded=0;labelBackgroundColor=none;fillColor=#ffffff;fontFamily=Verdana;fontSize=12;fontColor=#000000;" parent="7026571954dc6520-1" vertex="1">
          <mxGeometry y="320" width="1050" height="20" as="geometry" />
        </mxCell>
        <mxCell id="7026571954dc6520-22" value="" style="verticalLabelPosition=bottom;shadow=0;dashed=0;align=center;html=1;verticalAlign=top;strokeWidth=1;shape=mxgraph.mockup.graphics.simpleIcon;strokeColor=#999999;fillColor=#ffffff;rounded=0;labelBackgroundColor=none;fontFamily=Verdana;fontSize=12;fontColor=#000000;" parent="7026571954dc6520-1" vertex="1">
          <mxGeometry x="180" y="360" width="130" height="130" as="geometry" />
        </mxCell>
        <mxCell id="W9UuiEgfhQGYlAS1tFF7-3" value="HOME" style="text;html=1;points=[];align=left;verticalAlign=top;spacingTop=-4;fontSize=15;fontFamily=Verdana" parent="7026571954dc6520-1" vertex="1">
          <mxGeometry x="110" y="130" width="60" height="30" as="geometry" />
        </mxCell>
        <mxCell id="W9UuiEgfhQGYlAS1tFF7-4" value="SERVICES" style="text;html=1;points=[];align=left;verticalAlign=top;spacingTop=-4;fontSize=15;fontFamily=Verdana" parent="7026571954dc6520-1" vertex="1">
          <mxGeometry x="170" y="130" width="80" height="30" as="geometry" />
        </mxCell>
        <mxCell id="W9UuiEgfhQGYlAS1tFF7-5" value="ABOUT" style="text;html=1;points=[];align=left;verticalAlign=top;spacingTop=-4;fontSize=15;fontFamily=Verdana" parent="7026571954dc6520-1" vertex="1">
          <mxGeometry x="260" y="130" width="80" height="30" as="geometry" />
        </mxCell>
        <mxCell id="W9UuiEgfhQGYlAS1tFF7-6" value="CONTACT US" style="text;html=1;points=[];align=left;verticalAlign=top;spacingTop=-4;fontSize=15;fontFamily=Verdana" parent="7026571954dc6520-1" vertex="1">
          <mxGeometry x="325" y="130" width="80" height="30" as="geometry" />
        </mxCell>
        <mxCell id="W9UuiEgfhQGYlAS1tFF7-7" value="LOGO" style="ellipse;whiteSpace=wrap;html=1;aspect=fixed;" parent="7026571954dc6520-1" vertex="1">
          <mxGeometry x="15" y="115" width="60" height="60" as="geometry" />
        </mxCell>
        <mxCell id="W9UuiEgfhQGYlAS1tFF7-8" value="IG" style="ellipse;whiteSpace=wrap;html=1;aspect=fixed;" parent="7026571954dc6520-1" vertex="1">
          <mxGeometry x="990" y="130" width="30" height="30" as="geometry" />
        </mxCell>
        <mxCell id="W9UuiEgfhQGYlAS1tFF7-9" value="FB" style="ellipse;whiteSpace=wrap;html=1;aspect=fixed;" parent="7026571954dc6520-1" vertex="1">
          <mxGeometry x="950" y="130" width="30" height="30" as="geometry" />
        </mxCell>
        <mxCell id="W9UuiEgfhQGYlAS1tFF7-10" value="&lt;font style=&quot;font-size: 40px;&quot;&gt;TOP BANNER&lt;/font&gt;" style="text;html=1;points=[];align=left;verticalAlign=top;spacingTop=-4;fontSize=15;fontFamily=Verdana" parent="7026571954dc6520-1" vertex="1">
          <mxGeometry x="394" y="230" width="262" height="50" as="geometry" />
        </mxCell>
        <mxCell id="W9UuiEgfhQGYlAS1tFF7-11" value="" style="verticalLabelPosition=bottom;shadow=0;dashed=0;align=center;html=1;verticalAlign=top;strokeWidth=1;shape=mxgraph.mockup.graphics.simpleIcon;strokeColor=#999999;fillColor=#ffffff;rounded=0;labelBackgroundColor=none;fontFamily=Verdana;fontSize=12;fontColor=#000000;" parent="7026571954dc6520-1" vertex="1">
          <mxGeometry x="455" y="360" width="130" height="130" as="geometry" />
        </mxCell>
        <mxCell id="W9UuiEgfhQGYlAS1tFF7-12" value="" style="verticalLabelPosition=bottom;shadow=0;dashed=0;align=center;html=1;verticalAlign=top;strokeWidth=1;shape=mxgraph.mockup.graphics.simpleIcon;strokeColor=#999999;fillColor=#ffffff;rounded=0;labelBackgroundColor=none;fontFamily=Verdana;fontSize=12;fontColor=#000000;" parent="7026571954dc6520-1" vertex="1">
          <mxGeometry x="750" y="360" width="130" height="130" as="geometry" />
        </mxCell>
        <mxCell id="W9UuiEgfhQGYlAS1tFF7-13" value="GRAPHIC DESIGN INFORMATION" style="rounded=1;whiteSpace=wrap;html=1;" parent="7026571954dc6520-1" vertex="1">
          <mxGeometry x="180" y="510" width="130" height="90" as="geometry" />
        </mxCell>
        <mxCell id="W9UuiEgfhQGYlAS1tFF7-36" value="GRAPHIC DESIGN INFORMATION" style="rounded=1;whiteSpace=wrap;html=1;" parent="7026571954dc6520-1" vertex="1">
          <mxGeometry x="455" y="510" width="130" height="90" as="geometry" />
        </mxCell>
        <mxCell id="W9UuiEgfhQGYlAS1tFF7-37" value="GRAPHIC DESIGN INFORMATION" style="rounded=1;whiteSpace=wrap;html=1;" parent="7026571954dc6520-1" vertex="1">
          <mxGeometry x="750" y="510" width="130" height="90" as="geometry" />
        </mxCell>
        <mxCell id="W9UuiEgfhQGYlAS1tFF7-38" value="VIEW PORTFOLIO" style="rounded=1;whiteSpace=wrap;html=1;" parent="7026571954dc6520-1" vertex="1">
          <mxGeometry x="180" y="610" width="130" height="30" as="geometry" />
        </mxCell>
        <mxCell id="W9UuiEgfhQGYlAS1tFF7-39" value="VIEW PORTFOLIO" style="rounded=1;whiteSpace=wrap;html=1;" parent="7026571954dc6520-1" vertex="1">
          <mxGeometry x="455" y="610" width="130" height="30" as="geometry" />
        </mxCell>
        <mxCell id="W9UuiEgfhQGYlAS1tFF7-40" value="VIEW PORTFOLIO" style="rounded=1;whiteSpace=wrap;html=1;" parent="7026571954dc6520-1" vertex="1">
          <mxGeometry x="750" y="610" width="130" height="30" as="geometry" />
        </mxCell>
        <mxCell id="W9UuiEgfhQGYlAS1tFF7-41" value="" style="verticalLabelPosition=bottom;shadow=0;dashed=0;align=center;html=1;verticalAlign=top;strokeWidth=1;shape=mxgraph.mockup.markup.line;strokeColor=#999999;rounded=0;labelBackgroundColor=none;fillColor=#ffffff;fontFamily=Verdana;fontSize=12;fontColor=#000000;" parent="7026571954dc6520-1" vertex="1">
          <mxGeometry y="795" width="1050" height="20" as="geometry" />
        </mxCell>
      </root>
    </mxGraphModel>
  </diagram>
</mxfile>
